<svg xmlns="http://www.w3.org/2000/svg" viewBox="0 0 24 24" fill="none">
  <path fill="#FF0420" d="M12 24c6.627 0 12-5.373 12-12S18.627 0 12 0 0 5.373 0 12s5.373 12 12 12z"/>
  <path fill="#fff" d="M8.7 14.945a2.431 2.431 0 01-2.428-2.428c0-1.34 1.088-2.428 2.428-2.428 1.34 0 2.428 1.088 2.428 2.428 0 1.34-1.088 2.428-2.428 2.428zm0-7.283a4.86 4.86 0 00-4.855 4.855A4.86 4.86 0 008.7 17.372a4.86 4.86 0 004.855-4.855A4.86 4.86 0 008.7 7.662z"/>
  <path fill="#fff" d="M15.3 9.905a2.431 2.431 0 01-2.428-2.428c0-1.34 1.088-2.428 2.428-2.428 1.34 0 2.428 1.088 2.428 2.428 0 1.34-1.088 2.428-2.428 2.428zm0-7.283a4.86 4.86 0 00-4.855 4.855 4.86 4.86 0 004.855 4.855 4.86 4.86 0 004.855-4.855A4.86 4.86 0 0015.3 2.622z"/>
</svg> 